# xmcd
#
# Track frame offsets: 
#        150
#        14953
#        26151
#        40809
#        51106
#        60274
#        69125
#        79103
#        93004
#        98986
#        118582
#        129311
#
# Disc length: 1898 seconds
#
# Revision: 0
# Processed by: cddbd v1.5.2PL0 Copyright (c) Steve Scherf et al.
# Submitted via: ExactAudioCopy v0.99pb5
#
DISCID=9307680c
DTITLE=Roy Orbison - Roy Orbison
DYEAR=1900
DGENRE=Blues
TTITLE0=Too Soon To Know
TTITLE1=Lana
TTITLE2=Candy Man
TTITLE3=Ooby Dooby
TTITLE4=Claudette
TTITLE5=Mean Little Mama
TTITLE6=Devil Doll
TTITLE7=Leah
TTITLE8=One More Time
TTITLE9=Oh Pretty Woman
TTITLE10=A True Love Goodbye
TTITLE11=It's Over
EXTD=
EXTT0=
EXTT1=
EXTT2=
EXTT3=
EXTT4=
EXTT5=
EXTT6=
EXTT7=
EXTT8=
EXTT9=
EXTT10=
EXTT11=
PLAYORDER=
